<?xml version="1.0" encoding="UTF-8"?>
<svg version="1.1" xmlns="http://www.w3.org/2000/svg" width="512" height="512">
<path d="M0 0 C168.96 0 337.92 0 512 0 C512 168.96 512 337.92 512 512 C343.04 512 174.08 512 0 512 C0 343.04 0 174.08 0 0 Z " fill="#FDFEFE" transform="translate(0,0)"/>
<path d="M0 0 C0.7961816 -0.00367669 1.59236319 -0.00735338 2.41267151 -0.01114148 C5.07776883 -0.02214514 7.74282712 -0.02601654 10.40794373 -0.02983093 C12.3202222 -0.03609816 14.23249946 -0.0427452 16.14477539 -0.04974365 C22.42316341 -0.07075822 28.7015516 -0.08114466 34.97996521 -0.09111023 C37.14442902 -0.09515897 39.3088927 -0.09927593 41.47335625 -0.10346031 C51.64484184 -0.12250746 61.81632021 -0.13673864 71.98782021 -0.14507228 C83.71327044 -0.15483866 95.43853159 -0.18114464 107.16391522 -0.22157317 C116.23674157 -0.25177779 125.30951385 -0.26654534 134.38238949 -0.26985329 C139.79641963 -0.27219909 145.21024768 -0.28109818 150.62422371 -0.30631447 C155.72226415 -0.32967579 160.81997057 -0.33379605 165.91805077 -0.32355309 C167.78197977 -0.32305955 169.64592567 -0.32932583 171.50980377 -0.34310913 C186.16942631 -0.44538959 198.56714881 1.02761055 210.03855896 11.14717102 C218.59494267 20.08844397 223.15025623 29.23587584 223.17557335 41.64508057 C223.17822518 42.28684866 223.180877 42.92861675 223.18360919 43.58983237 C223.19127626 45.7429933 223.19186036 47.89609697 223.19245911 50.04927063 C223.19647544 51.60762135 223.20091395 53.16597103 223.20573866 54.72431946 C223.21769097 59.00912047 223.2233495 63.29391022 223.22791982 67.57872462 C223.233881 72.19924961 223.24548956 76.81976117 223.25621033 81.4402771 C223.28072245 92.60037988 223.29535972 103.76048711 223.30827039 114.92060852 C223.31198319 118.07340015 223.31595635 121.22619135 223.32002306 124.37898254 C223.34526038 143.9628709 223.36731064 163.54675998 223.37975121 183.13066101 C223.38268084 187.66594953 223.38564251 192.20123803 223.38865662 196.73652649 C223.38940267 197.86373194 223.39014872 198.9909374 223.39091738 200.1523006 C223.4035681 218.40795202 223.43678816 236.66350598 223.47845845 254.91911185 C223.52090199 273.6673693 223.54444903 292.41557689 223.54967177 311.16388226 C223.55308312 321.688072 223.56480587 332.21210943 223.59777451 342.73625183 C223.62580938 351.70007225 223.63675922 360.66370912 223.62557904 369.62756997 C223.62040124 374.19836339 223.62322196 378.76877264 223.64804459 383.33950996 C223.67061577 387.53079724 223.66973673 391.72142614 223.65084071 395.91272557 C223.64805168 397.42222778 223.65357781 398.9317754 223.66865365 400.44120491 C223.80091413 414.55597195 220.2473947 427.31155226 210.45262146 437.85420227 C197.77550826 449.60880253 181.95149706 450.5961226 165.61473083 450.53535461 C163.76890758 450.5394261 161.92308676 450.54477121 160.07727051 450.55128479 C155.09174368 450.56489551 150.10640427 450.55968564 145.1208744 450.55014753 C139.88766117 450.54251846 134.6544633 450.54960553 129.42124939 450.55430603 C120.63529091 450.55975415 111.84940825 450.55259677 103.0634613 450.5382843 C92.92562836 450.52195964 82.78797647 450.52724881 72.65014791 450.54376352 C63.92454533 450.55740531 55.19899705 450.55928489 46.47338724 450.55144751 C41.27136171 450.54678579 36.0694211 450.54610469 30.86740112 450.55605698 C25.97531149 450.56476363 21.08345383 450.55863749 16.19138908 450.54137421 C14.40284039 450.53742905 12.61427195 450.53850935 10.82573128 450.5451622 C-4.68247996 450.59750171 -18.3288326 448.88668994 -30.32081604 438.00654602 C-40.20277134 427.38158656 -43.31763139 416.91909449 -43.15675354 402.64326477 C-43.15392365 401.67937332 -43.15109375 400.71548187 -43.1481781 399.72238159 C-43.13707952 396.67634596 -43.11199468 393.63061616 -43.08644104 390.58467102 C-43.07639788 388.50589926 -43.06727438 386.42712284 -43.05909729 384.3483429 C-43.03717409 379.28116971 -43.0027166 374.21422202 -42.96144104 369.14717102 C-37.35144104 369.14717102 -31.74144104 369.14717102 -25.96144104 369.14717102 C-25.96144104 374.42717102 -25.96144104 379.70717102 -25.96144104 385.14717102 C50.59855896 385.14717102 127.15855896 385.14717102 206.03855896 385.14717102 C206.03855896 278.55717102 206.03855896 171.96717102 206.03855896 62.14717102 C129.47855896 62.14717102 52.91855896 62.14717102 -25.96144104 62.14717102 C-25.96144104 67.75717102 -25.96144104 73.36717102 -25.96144104 79.14717102 C-31.57144104 79.14717102 -37.18144104 79.14717102 -42.96144104 79.14717102 C-43.08602783 72.81586191 -43.17624356 66.48528295 -43.23609924 60.1530304 C-43.26107887 58.00381523 -43.2950747 55.85468357 -43.33863831 53.70576477 C-43.65581135 37.64561445 -43.0390874 26.12131448 -32.20362854 13.40498352 C-22.97897027 4.11604192 -12.95630259 -0.00322845 0 0 Z " fill="#055BA3" transform="translate(200.96144104003906,30.852828979492188)"/>
<path d="M0 0 C33.33 0 66.66 0 101 0 C101 11.55 101 23.1 101 35 C116.84 35 132.68 35 149 35 C149 51.5 149 68 149 85 C133.16 85 117.32 85 101 85 C101 72.79 101 60.58 101 48 C90.77 48 80.54 48 70 48 C70 106.74 70 165.48 70 226 C80.23 226 90.46 226 101 226 C101 214.12 101 202.24 101 190 C116.84 190 132.68 190 149 190 C149 206.17 149 222.34 149 239 C133.16 239 117.32 239 101 239 C101 250.55 101 262.1 101 274 C67.67 274 34.34 274 0 274 C0 262.45 0 250.9 0 239 C-11.55 239 -23.1 239 -35 239 C-35 171.68 -35 104.36 -35 35 C-23.45 35 -11.9 35 0 35 C0 23.45 0 11.9 0 0 Z " fill="#1B2F58" transform="translate(105,119)"/>
<path d="M0 0 C13.86 0 27.72 0 42 0 C42 59.4 42 118.8 42 180 C28.14 180 14.28 180 0 180 C0 120.6 0 61.2 0 0 Z " fill="#F9FAFB" transform="translate(116,166)"/>
<path d="M0 0 C16.17 0 32.34 0 49 0 C49 12.21 49 24.42 49 37 C64.51 37 80.02 37 96 37 C96 37.33 96 37.66 96 38 C80.16 38 64.32 38 48 38 C48 25.79 48 13.58 48 1 C37.77 1 27.54 1 17 1 C17 59.74 17 118.48 17 179 C11.39 179 5.78 179 0 179 C0 119.93 0 60.86 0 0 Z " fill="#095BA2" transform="translate(158,166)"/>
<path d="M0 0 C5.79512102 2.98596066 10.54978232 7.24018965 13.4921875 13.125 C14.32983025 21.10911378 14.49387709 27.83273057 9.30859375 34.28125 C4.19981299 39.46693714 0.33304765 41.41581706 -7.0703125 41.6875 C-13.72911237 41.39531248 -17.36066583 40.2135951 -22.1875 35.4765625 C-27.47904566 29.67864884 -28.99490779 24.66241114 -28.81640625 16.83984375 C-28.06490802 10.22856182 -24.23858391 6.49257174 -19.2890625 2.38671875 C-13.42061334 -1.7700994 -6.83313765 -2.38414772 0 0 Z " fill="#FAFCFC" transform="translate(298.5078125,427.875)"/>
<path d="M0 0 C11.55 0 23.1 0 35 0 C35 11.88 35 23.76 35 36 C29.410625 36.020625 23.82125 36.04125 18.0625 36.0625 C16.29656494 36.071604 14.53062988 36.08070801 12.71118164 36.09008789 C11.31917395 36.09300714 9.92716541 36.09555567 8.53515625 36.09765625 C7.80615112 36.10277222 7.077146 36.10788818 6.3260498 36.11315918 C4.55029924 36.11347011 2.77465792 36.06228515 1 36 C0 35 0 35 -0.11352539 31.67358398 C-0.11327435 30.19774445 -0.10771514 28.72189903 -0.09765625 27.24609375 C-0.09664917 26.55906372 -0.09564209 25.87203369 -0.09460449 25.16418457 C-0.08935776 22.58860616 -0.07539659 20.01305147 -0.0625 17.4375 C-0.041875 11.683125 -0.02125 5.92875 0 0 Z " fill="#0C5FA3" transform="translate(257,266)"/>
<path d="M0 0 C11.55 0 23.1 0 35 0 C35 11.55 35 23.1 35 35 C23.45 35 11.9 35 0 35 C0 23.45 0 11.9 0 0 Z " fill="#08ACE8" transform="translate(306,315)"/>
<path d="M0 0 C11.55 0 23.1 0 35 0 C35 11.55 35 23.1 35 35 C23.45 35 11.9 35 0 35 C0 23.45 0 11.9 0 0 Z " fill="#08AEE8" transform="translate(208,266)"/>
<path d="M0 0 C11.55 0 23.1 0 35 0 C35 11.55 35 23.1 35 35 C23.45 35 11.9 35 0 35 C0 23.45 0 11.9 0 0 Z " fill="#09ADE8" transform="translate(257,217)"/>
<path d="M0 0 C11.55 0 23.1 0 35 0 C35 11.55 35 23.1 35 35 C23.45 35 11.9 35 0 35 C0 23.45 0 11.9 0 0 Z " fill="#0BAEE7" transform="translate(306,169)"/>
<path d="M0 0 C1.43352211 0.00025101 2.86705028 0.00580931 4.30053711 0.01586914 C5.30159485 0.01737976 5.30159485 0.01737976 6.32287598 0.0189209 C8.82456166 0.02416731 11.32622292 0.03812848 13.82788086 0.05102539 C22.21194336 0.08196289 22.21194336 0.08196289 30.76538086 0.11352539 C30.76538086 11.66352539 30.76538086 23.21352539 30.76538086 35.11352539 C19.21538086 35.11352539 7.66538086 35.11352539 -4.23461914 35.11352539 C-4.25524414 29.52415039 -4.27586914 23.93477539 -4.29711914 18.17602539 C-4.30622314 16.41009033 -4.31532715 14.64415527 -4.32470703 12.82470703 C-4.32762628 11.43269934 -4.33017482 10.04069081 -4.33227539 8.64868164 C-4.33994934 7.55517395 -4.33994934 7.55517395 -4.34777832 6.4395752 C-4.34808926 4.66382463 -4.29690429 2.88818331 -4.23461914 1.11352539 C-3.23461914 0.11352539 -3.23461914 0.11352539 0 0 Z " fill="#08AEE8" transform="translate(212.234619140625,216.886474609375)"/>
<path d="M0 0 C1.3912047 0.00025098 2.78241565 0.0058083 4.17358398 0.01586914 C4.82129761 0.01687622 5.46901123 0.0178833 6.13635254 0.0189209 C8.56414552 0.02416696 10.99191334 0.03812814 13.41967773 0.05102539 C21.55624023 0.08196289 21.55624023 0.08196289 29.85717773 0.11352539 C29.85717773 11.66352539 29.85717773 23.21352539 29.85717773 35.11352539 C18.63717773 35.11352539 7.41717773 35.11352539 -4.14282227 35.11352539 C-4.16344727 29.52415039 -4.18407227 23.93477539 -4.20532227 18.17602539 C-4.21442627 16.41009033 -4.22353027 14.64415527 -4.23291016 12.82470703 C-4.2358294 11.43269934 -4.23837794 10.04069081 -4.24047852 8.64868164 C-4.24815247 7.55517395 -4.24815247 7.55517395 -4.25598145 6.4395752 C-4.25629238 4.66382463 -4.20510741 2.88818331 -4.14282227 1.11352539 C-3.14282227 0.11352539 -3.14282227 0.11352539 0 0 Z " fill="#065CA2" transform="translate(310.142822265625,265.886474609375)"/>
<path d="M0 0 C11.22 0 22.44 0 34 0 C34 11.22 34 22.44 34 34 C22.78 34 11.56 34 0 34 C0 22.78 0 11.56 0 0 Z " fill="#02AAE7" transform="translate(355,267)"/>
<path d="M0 0 C11.22 0 22.44 0 34 0 C34 11.22 34 22.44 34 34 C22.78 34 11.56 34 0 34 C0 22.78 0 11.56 0 0 Z " fill="#02AAE6" transform="translate(355,218)"/>
<path d="M0 0 C11.22 0 22.44 0 34 0 C34 11.22 34 22.44 34 34 C22.78 34 11.56 34 0 34 C0 22.78 0 11.56 0 0 Z " fill="#035AA0" transform="translate(306,218)"/>
<path d="M0 0 C11.22 0 22.44 0 34 0 C34 11.22 34 22.44 34 34 C22.78 34 11.56 34 0 34 C0 22.78 0 11.56 0 0 Z " fill="#03AAE7" transform="translate(355,169)"/>
<path d="M0 0 C0.67007584 -0.00350464 1.34015167 -0.00700928 2.03053284 -0.01062012 C4.25027765 -0.01943826 6.46970495 -0.01358818 8.68945312 -0.00683594 C10.22880108 -0.00818257 11.76814862 -0.01012308 13.30749512 -0.01263428 C16.53560429 -0.01558565 19.76360288 -0.01128755 22.99169922 -0.00195312 C27.13476107 0.00944149 31.27756381 0.00288208 35.42061615 -0.00909805 C38.59985312 -0.01631635 41.77902841 -0.01402888 44.95826721 -0.00884247 C46.48613007 -0.00750588 48.01399848 -0.009154 49.54185486 -0.01380157 C51.67519012 -0.0188664 53.80810257 -0.01115763 55.94140625 0 C57.76436218 0.00238678 57.76436218 0.00238678 59.62414551 0.00482178 C62.47070312 0.25878906 62.47070312 0.25878906 64.47070312 2.25878906 C64.72070312 5.25878906 64.72070312 5.25878906 64.47070312 8.25878906 C61.65923191 11.07026028 59.87963143 10.51242184 55.94140625 10.51757812 C55.27133041 10.52108276 54.60125458 10.5245874 53.91087341 10.52819824 C51.6911286 10.53701638 49.4717013 10.5311663 47.25195312 10.52441406 C45.71260517 10.52576069 44.17325763 10.52770121 42.63391113 10.5302124 C39.40580196 10.53316377 36.17780337 10.52886567 32.94970703 10.51953125 C28.80664518 10.50813663 24.66384244 10.51469605 20.5207901 10.52667618 C17.34155313 10.53389448 14.16237784 10.531607 10.98313904 10.52642059 C9.45527618 10.52508401 7.92740777 10.52673212 6.39955139 10.5313797 C4.26621613 10.53644453 2.13330368 10.52873576 0 10.51757812 C-1.21530396 10.51598694 -2.43060791 10.51439575 -3.68273926 10.51275635 C-6.52929688 10.25878906 -6.52929688 10.25878906 -8.52929688 8.25878906 C-8.77929688 5.25878906 -8.77929688 5.25878906 -8.52929688 2.25878906 C-5.71782566 -0.55268215 -3.93822518 0.00515628 0 0 Z " fill="#F6FAFB" transform="translate(266.529296875,55.7412109375)"/>
<path d="M0 0 C2.15502531 3.23253796 2.46856135 4.25150923 2 8 C0.9375 9.8125 0.9375 9.8125 -1 11 C-4.5625 11.3125 -4.5625 11.3125 -8 11 C-10 9 -10 9 -10.3125 5.5625 C-10 2 -10 2 -8.9375 0 C-5.77203476 -1.63378851 -3.34979714 -0.85267564 0 0 Z " fill="#F4F8FA" transform="translate(244,56)"/>
</svg>
